<?xml version="1.0" encoding="UTF-8"?>
<!DOCTYPE svg PUBLIC "-//W3C//DTD SVG 1.1//EN" "http://www.w3.org/Graphics/SVG/1.1/DTD/svg11.dtd">
<!-- Creator: CorelDRAW 2017 -->
<svg xmlns="http://www.w3.org/2000/svg" xml:space="preserve" width="662px" height="223px" version="1.1" style="shape-rendering:geometricPrecision; text-rendering:geometricPrecision; image-rendering:optimizeQuality; fill-rule:evenodd; clip-rule:evenodd"
viewBox="0 0 426.463 143.429"
 xmlns:xlink="http://www.w3.org/1999/xlink">
 <defs>
  <style type="text/css">
   <![CDATA[
    .fil0 {fill:#2B539F;fill-rule:nonzero}
   ]]>
  </style>
 </defs>
 <g id="Layer_x0020_1">
  <metadata id="CorelCorpID_0Corel-Layer"/>
  <path class="fil0" d="M31.591 45.235l2.133 -5.295c-1.066,0.294 -2.758,0.956 -5.038,1.949 -4.965,2.096 -8.128,3.126 -9.488,3.126 -1.288,0 -2.354,-0.699 -3.163,-2.097 -0.846,-1.397 -1.251,-3.236 -1.251,-5.443 0,-1.875 0.478,-4.118 1.398,-6.693 0.919,-2.574 1.949,-4.34 3.016,-5.259 1.875,-1.434 10.04,-5.553 24.566,-12.283l3.237 -1.435c0.625,-0.404 1.692,-0.919 3.126,-1.507 9.525,-4.671 15.63,-6.988 18.314,-6.988 2.354,0 4.193,0.699 5.554,2.059 1.324,1.361 1.986,3.31 2.022,5.811 0,5.406 -2.537,14.932 -7.576,28.576 -1.14,3.273 -2.059,5.884 -2.758,7.796 -0.662,1.913 -1.655,4.708 -2.942,8.459 -0.368,1.361 -0.772,2.758 -1.214,4.192 -2.5,8.422 -4.339,14.748 -5.479,18.977 -0.147,0.515 -0.625,2.207 -1.471,5.112 -0.809,2.906 -1.398,5.039 -1.766,6.326 -0.367,1.287 -0.772,2.611 -1.213,3.972 -4.818,18.388 -8.827,30.193 -12.063,35.379 -1.067,1.618 -2.317,3.126 -3.751,4.413 -3.089,2.354 -5.774,4.193 -8.054,5.48 -2.244,1.287 -4.413,2.206 -6.436,2.758 -2.06,0.552 -4.377,0.809 -6.951,0.809 -3.751,0 -7.061,-1.103 -9.967,-3.273 -2.905,-2.207 -4.376,-4.707 -4.376,-7.502 0,-0.515 0.147,-1.324 0.441,-2.465 8.459,-25.228 18.867,-53.546 31.15,-84.954zm136.773 -40.822l1.067 0c3.898,0 7.612,1.765 11.18,5.259 3.53,3.531 6.362,8.238 8.458,14.123 2.096,5.847 3.126,12.025 3.126,18.498 0,2.401 -0.125,4.908 -0.377,7.515l-28.818 0c-0.478,-5.026 -1.551,-9.876 -3.205,-14.576 -2.354,-6.546 -5.369,-11.437 -9.121,-14.564 -0.698,-0.514 -1.066,-1.029 -1.066,-1.507 0,-1.655 3.015,-4.892 9.047,-9.709l1.949 -1.067 -0.441 -0.441c-4.597,0.073 -9.305,2.39 -14.159,6.95 -4.818,4.561 -9.195,10.408 -13.056,17.58 -3.862,7.171 -7.024,15.299 -9.488,24.346 -2.428,9.01 -3.641,17.579 -3.641,25.597 0,5.81 1.029,11.768 3.052,17.91 2.06,6.142 4.634,11.254 7.76,15.336 3.126,4.082 6.105,6.141 8.974,6.141 2.243,0 4.56,-1.471 7.024,-4.449 2.427,-2.979 4.634,-7.209 6.656,-12.652 0.75,-1.881 1.458,-3.79 2.126,-5.73l20.854 0c-1.749,3.281 -3.634,6.515 -5.658,9.702 -4.413,6.951 -9.01,12.725 -13.754,17.322 -11.18,11.327 -22.655,16.991 -34.35,16.991 -7.833,0 -14.71,-1.949 -20.668,-5.848 -5.958,-3.935 -10.555,-9.488 -13.791,-16.696 -3.237,-7.209 -4.855,-15.483 -4.855,-24.788 0,-16.071 3.347,-31.481 10.077,-46.228 6.693,-14.748 15.593,-26.663 26.626,-35.747 11.07,-9.121 22.434,-13.681 34.129,-13.681 5.7,0 10.445,1.471 14.343,4.413zm117.134 0l1.066 0c3.899,0 7.613,1.765 11.18,5.259 3.531,3.531 6.363,8.238 8.459,14.123 2.096,5.847 3.126,12.025 3.126,18.498 0,2.401 -0.125,4.908 -0.377,7.515l-28.818 0c-0.478,-5.026 -1.551,-9.876 -3.205,-14.576 -2.354,-6.546 -5.37,-11.437 -9.121,-14.564 -0.699,-0.514 -1.066,-1.029 -1.066,-1.507 0,-1.655 3.015,-4.892 9.047,-9.709l1.949 -1.067 -0.441 -0.441c-4.598,0.073 -9.305,2.39 -14.159,6.95 -4.818,4.561 -9.195,10.408 -13.056,17.58 -2.836,5.267 -5.296,11.05 -7.378,17.334l-32.476 0c0.057,-0.127 0.114,-0.253 0.172,-0.38 6.693,-14.748 15.593,-26.663 26.626,-35.747 11.07,-9.121 22.434,-13.681 34.129,-13.681 5.7,0 10.444,1.471 14.343,4.413zm7.9 94.56c-1.749,3.281 -3.633,6.515 -5.657,9.702 -4.413,6.951 -9.01,12.725 -13.754,17.322 -11.18,11.327 -22.655,16.991 -34.35,16.991 -7.833,0 -14.71,-1.949 -20.668,-5.848 -5.958,-3.935 -10.555,-9.488 -13.792,-16.696 -2.846,-6.34 -4.441,-13.506 -4.783,-21.471l39.18 0c0.139,0.451 0.282,0.902 0.431,1.354 2.06,6.142 4.634,11.254 7.76,15.336 3.126,4.082 6.105,6.141 8.973,6.141 2.244,0 4.561,-1.471 7.025,-4.449 2.427,-2.979 4.634,-7.209 6.656,-12.652 0.75,-1.881 1.458,-3.79 2.126,-5.73l20.853 0zm109.234 -94.56l1.066 0c3.898,0 7.613,1.765 11.18,5.259 3.531,3.531 6.363,8.238 8.459,14.123 2.096,5.847 3.126,12.025 3.126,18.498 0,6.51 -0.919,13.792 -2.795,21.772 -1.876,8.017 -4.376,15.704 -7.502,23.096 -3.127,7.392 -6.878,14.563 -11.291,21.514 -4.413,6.951 -9.01,12.725 -13.755,17.322 -11.18,11.327 -22.654,16.991 -34.349,16.991 -7.833,0 -14.711,-1.949 -20.668,-5.848 -5.958,-3.935 -10.555,-9.488 -13.792,-16.696 -2.846,-6.34 -4.441,-13.506 -4.784,-21.471l39.181 0c0.139,0.451 0.282,0.902 0.431,1.354 2.059,6.142 4.634,11.254 7.76,15.336 3.126,4.082 6.105,6.141 8.973,6.141 2.244,0 4.561,-1.471 7.025,-4.449 2.427,-2.979 4.634,-7.209 6.656,-12.652 2.096,-5.259 3.862,-10.738 5.37,-16.476 1.507,-5.737 2.648,-11.401 3.457,-16.99 0.772,-5.591 1.176,-10.703 1.176,-15.3 0,-7.245 -1.176,-14.122 -3.493,-20.705 -2.354,-6.546 -5.37,-11.437 -9.121,-14.564 -0.699,-0.514 -1.067,-1.029 -1.067,-1.507 0,-1.655 3.016,-4.892 9.048,-9.709l1.949 -1.067 -0.442 -0.441c-4.597,0.073 -9.304,2.39 -14.159,6.95 -4.817,4.561 -9.194,10.408 -13.055,17.58 -2.837,5.267 -5.296,11.05 -7.378,17.334l-32.476 0c0.057,-0.127 0.114,-0.253 0.172,-0.38 6.693,-14.748 15.593,-26.663 26.626,-35.747 11.07,-9.121 22.434,-13.681 34.129,-13.681 5.7,0 10.444,1.471 14.343,4.413zm-240.195 74.88l8.804 -17.938 4.706 0 7.089 28.448 -6.982 0 -3.813 -16.697 -8.5 16.697 -2.929 0 -8.286 -16.706 -3.83 16.706 -6.964 0 7.116 -28.448 4.705 0 8.884 17.938zm207.961 20.245l-237.583 0 161.305 -2.761 76.278 2.761zm-3.145 -40.995l-7.206 7.465 -0.061 -7.523 7.267 0.058zm-224.591 -8.977l237.583 0 -161.304 2.655 -76.279 -2.655zm72.768 28.022l-22.903 0c0.331,2.027 1.215,3.643 2.643,4.848 1.429,1.197 3.259,1.795 5.474,1.795 2.661,0 4.937,-0.938 6.848,-2.812l5.982 2.83c-1.491,2.125 -3.285,3.697 -5.366,4.723 -2.089,1.018 -4.563,1.527 -7.429,1.527 -4.446,0 -8.071,-1.402 -10.866,-4.214 -2.795,-2.804 -4.197,-6.322 -4.197,-10.545 0,-4.331 1.402,-7.929 4.197,-10.786 2.795,-2.866 6.295,-4.295 10.518,-4.295 4.474,0 8.116,1.429 10.92,4.277 2.804,2.857 4.206,6.616 4.206,11.304l-0.027 1.348zm-7.099 -5.572c-0.473,-1.553 -1.401,-2.821 -2.785,-3.794 -1.393,-0.974 -3,-1.456 -4.84,-1.456 -1.991,0 -3.732,0.545 -5.241,1.643 -0.938,0.679 -1.813,1.884 -2.616,3.607l15.482 0zm38.385 17.787l-7.223 0 -7.179 -17.974 -7.286 17.974 -7.214 0 12.107 -28.448 4.608 0 12.187 28.448zm17.117 -29.144c2.687,0 5.214,0.67 7.58,2.009 2.375,1.339 4.215,3.152 5.545,5.447 1.33,2.303 1.991,4.776 1.991,7.437 0,2.679 -0.669,5.179 -2,7.509 -1.339,2.331 -3.161,4.152 -5.464,5.465 -2.313,1.312 -4.849,1.973 -7.626,1.973 -4.089,0 -7.58,-1.447 -10.464,-4.339 -2.893,-2.902 -4.34,-6.42 -4.34,-10.554 0,-4.438 1.635,-8.134 4.902,-11.09 2.867,-2.571 6.153,-3.857 9.876,-3.857zm0.107 6.696c-2.223,0 -4.072,0.768 -5.545,2.304 -1.473,1.545 -2.214,3.509 -2.214,5.911 0,2.464 0.732,4.464 2.187,5.991 1.456,1.527 3.304,2.295 5.545,2.295 2.232,0 4.089,-0.777 5.58,-2.322 1.483,-1.544 2.224,-3.535 2.224,-5.964 0,-2.437 -0.732,-4.411 -2.188,-5.938 -1.455,-1.517 -3.321,-2.277 -5.589,-2.277zm36.287 11.144l-5.742 0c-3.884,0 -6.875,-0.741 -8.964,-2.233 -2.09,-1.491 -3.134,-3.946 -3.134,-7.357l0 -7.554 7.125 0 0 7.001c0,2.491 1.678,3.741 5.045,3.741l2.794 -0.027 2.876 0 0 -10.715 7.125 0 0 28.448 -7.125 0 0 -11.304zm42.786 -0.911l-22.902 0c0.33,2.027 1.214,3.643 2.643,4.848 1.428,1.197 3.259,1.795 5.473,1.795 2.661,0 4.938,-0.938 6.849,-2.812l5.982 2.83c-1.491,2.125 -3.286,3.697 -5.366,4.723 -2.09,1.018 -4.563,1.527 -7.429,1.527 -4.447,0 -8.072,-1.402 -10.867,-4.214 -2.794,-2.804 -4.196,-6.322 -4.196,-10.545 0,-4.331 1.402,-7.929 4.196,-10.786 2.795,-2.866 6.295,-4.295 10.519,-4.295 4.473,0 8.116,1.429 10.919,4.277 2.804,2.857 4.206,6.616 4.206,11.304l-0.027 1.348zm-7.098 -5.572c-0.473,-1.553 -1.402,-2.821 -2.786,-3.794 -1.393,-0.974 -3,-1.456 -4.839,-1.456 -1.992,0 -3.733,0.545 -5.242,1.643 -0.937,0.679 -1.812,1.884 -2.616,3.607l15.483 0zm16.715 17.787l-3.795 0 0 -28.448 6.964 0 0 16.706 14.572 -16.706 3.429 0 0 28.448 -6.965 0 0 -16.367 -14.205 16.367z"/>
 </g>
</svg>
